<svg xmlns="http://www.w3.org/2000/svg" viewBox="0 0 132 36" width="132" height="36" fill="none"><path fill="currentColor" fill-rule="evenodd" d="M94.691 34.53v-3.786l11.063-14.246H94.727v-3.604h16.413v3.825L99.889 30.923h11.637v3.607H94.688h.003z" clip-rule="evenodd"/><path fill="currentColor" d="M77.464 34.527H72.95V12.894h4.406v3.019h.153l3.355-3.389h3.325c5.416 0 7.9 4.139 7.9 9.223V34.53h-4.65V21.523c0-2.654-1.489-5.398-4.604-5.398H77.51l-.045 18.402zM65.33 31.242h-6.59c-2.032 0-3.206-1.573-3.206-3.284 0-2.296 2.12-3.601 4.424-3.87l5.371-.585v7.74zm-6.816 3.601h3.313l3.505-3.359h.243v3.043h4.406V21.434c-.003-5.76-3.612-8.91-9.48-8.91-4.695 0-8.352 2.027-8.804 6.796h4.559c0-2.07 1.578-3.374 4.334-3.374 2.933 0 4.694 1.484 4.74 4.32l-6.004.63c-3.927.403-8.576 2.022-8.576 6.793 0 4.183 3.565 7.154 7.764 7.154zm68.706-3.601h-6.59c-2.031 0-3.206-1.573-3.206-3.284 0-2.296 2.121-3.601 4.425-3.87l5.371-.585v7.74zm-6.815 3.601h3.313l3.505-3.359h.242v3.043h4.407V21.434c-.003-5.76-3.613-8.91-9.481-8.91-4.694 0-8.352 2.025-8.801 6.793h4.559c0-2.07 1.579-3.374 4.335-3.374 2.932 0 4.694 1.484 4.739 4.32l-6.003.63c-3.927.406-8.576 2.025-8.576 6.793 0 4.183 3.564 7.154 7.764 7.154l-.003.003zM9.838 11.048 19.136 0l15.517 8.93 7.231 26.903H24.192L9.838 11.048z"/><path fill="currentColor" d="M5.695 18.778.333 25.15l2.873 10.68h9.885l5.563-9.593-12.959-7.459z"/></svg>