<svg viewBox="269 84 423 218" width="423" height="218" fill="none" xmlns="http://www.w3.org/2000/svg">
<path d="M368 211.58C408.058 211.58 423.918 147.79 463.97 147.79V84C423.918 84 408.058 147.79 368 147.79V211.58Z" fill="currentColor"/>
<path d="M464.041 211.58C504.092 211.58 519.959 147.79 560.01 147.79V84C519.959 84 504.092 147.79 464.041 147.79V211.58Z" fill="currentColor"/>
<path d="M560.01 211.58C568.494 211.58 576.631 208.22 582.63 202.238C588.63 196.257 592 188.144 592 179.685C592 171.226 588.63 163.113 582.63 157.132C576.631 151.15 568.494 147.79 560.01 147.79V211.58Z" fill="currentColor"/>
<path d="M306.264 251.302H325.826V300.953H313.021V261.587L302.491 300.953H289.112L279.505 261.88V300.953H269.203V251.302H289.125L297.153 285.212L306.264 251.302Z" fill="currentColor"/>
<path d="M358.204 265.496H370.246L348.812 315.147H337.065L343.326 300.74L328.073 265.496H341.453L349.28 286.986L358.204 265.496Z" fill="currentColor"/>
<path d="M369.938 289.401H383.452C383.599 293.296 385.727 295.991 389.861 295.991C392.63 295.991 394.557 294.857 394.557 292.936C394.557 290.268 391.881 289.468 387.158 287.974L380.682 285.986C374.059 283.865 370.648 280.45 370.648 275.314C370.648 268.35 377.123 264.388 388.51 264.388C399.601 264.388 406.077 268.39 406.933 275.661H394.557C394.424 274.168 393.706 272.787 392.559 271.818C391.412 270.849 389.928 270.37 388.429 270.485C385.512 270.485 384.161 271.819 384.161 273.246C384.161 275.594 387.158 276.514 391.279 277.795L397.822 279.849C401.528 280.983 408.071 283.465 408.071 290.415C408.071 297.365 401.528 302.114 389.219 302.114C377.766 302.087 371.076 297.618 369.938 289.401Z" fill="currentColor"/>
<path d="M432.97 272.646H426.709V289.988C426.709 293.176 427.137 293.603 431.833 293.603H432.97V300.98H424.943C416.339 300.98 413.851 298.499 413.851 288.787V272.646H409.556V265.549H413.904V257.745L426.709 252.782V265.549H432.97V272.646Z" fill="currentColor"/>
<path d="M473.511 285.146H448.491C448.772 293.79 450.913 295.711 454.324 295.711C457.522 295.711 459.168 293.723 459.596 289.401H472.829C471.972 296.845 466.058 302.087 454.324 302.087C440.717 302.087 435.111 293.99 435.111 283.585C435.111 272.659 440.878 264.362 454.672 264.362C466.42 264.362 473.524 271.739 473.524 283.798L473.511 285.146ZM448.825 278.756H459.783V278.542C459.783 272.593 457.228 270.738 454.592 270.738C450.819 270.738 449.039 274.353 448.825 278.756Z" fill="currentColor"/>
<path d="M513.034 277.195V300.953H500.23V279.316C500.23 274.98 498.892 272.859 495.534 272.859C492.175 272.859 490.342 275.194 490.342 280.863V300.873H477.538V272.086C477.538 270.458 477.538 267.19 477.391 265.496H490.128V270.245C491.761 266.843 495.48 264.362 501.153 264.362C508.766 264.362 513.034 268.19 513.034 277.195Z" fill="currentColor"/>
<path d="M546.658 292.229H569.243V300.953H533.117V251.302H546.631L546.658 292.229Z" fill="currentColor"/>
<path d="M595.668 300.953V295.991C593.607 299.473 590.048 301.46 584.134 301.46C576.026 301.46 571.624 297.338 571.624 290.962C571.624 284.078 576.976 281.877 584.777 280.29L587.988 279.649C593.741 278.515 595.454 277.595 595.454 274.834C595.454 272.352 593.888 270.712 591.038 270.712C590.375 270.635 589.703 270.708 589.072 270.927C588.441 271.146 587.868 271.504 587.395 271.975C586.923 272.446 586.564 273.018 586.344 273.647C586.125 274.275 586.051 274.946 586.128 275.607H572.922C573.27 267.883 579.037 264.335 591.132 264.335C603.655 264.335 607.99 268.657 607.99 276.101V295.324C607.99 297.658 607.99 299.579 608.204 300.994L595.668 300.953ZM595.173 287.76V283.505C594.236 283.932 593.099 284.358 591.252 284.999L590.182 285.359C586.703 286.493 584.991 287.267 584.991 289.828C584.991 292.162 586.556 293.83 589.62 293.83C593.152 293.79 595.146 291.455 595.146 287.76H595.173Z" fill="currentColor"/>
<path d="M650.525 282.944C650.525 293.51 644.825 301.38 634.469 301.38C632.798 301.44 631.133 301.142 629.587 300.507C628.041 299.872 626.649 298.914 625.504 297.698L624.514 300.953H613.128V251.302H625.933V269.111C627.043 267.618 628.493 266.41 630.163 265.584C631.833 264.758 633.675 264.34 635.539 264.362C646.016 264.362 650.525 272.232 650.525 282.944ZM636.503 282.944C636.503 275.074 634.308 271.805 630.963 271.805C627.11 271.805 625.612 275.074 625.612 282.944C625.612 289.321 627.097 293.937 630.963 293.937C635.058 293.99 636.543 289.321 636.543 282.944H636.503Z" fill="currentColor"/>
<path d="M652.665 289.401H666.179C666.326 293.296 668.453 295.991 672.588 295.991C675.357 295.991 677.27 294.857 677.27 292.936C677.27 290.268 674.595 289.468 669.872 287.974L663.409 285.986C656.719 283.865 653.374 280.45 653.374 275.314C653.374 268.35 659.85 264.388 671.236 264.388C682.328 264.388 688.804 268.39 689.66 275.661H677.284C677.154 274.169 676.439 272.788 675.294 271.819C674.149 270.85 672.667 270.37 671.169 270.485C668.253 270.485 666.901 271.819 666.901 273.246C666.901 275.594 669.885 276.514 674.019 277.795L680.562 279.849C684.268 280.983 690.811 283.465 690.811 290.415C690.811 297.365 684.268 302.114 671.959 302.114C660.492 302.087 653.802 297.618 652.665 289.401Z" fill="currentColor"/>
</svg>